<svg xmlns="http://www.w3.org/2000/svg" width="14" height="14" viewBox="0 0 14 14"><g><g><path d="M14 .626v7.6c-.001.345-.267.624-.595.624H4.283c.093.103.192.21.301.326 1.01 1.062 1.51 1.35 1.911 1.58l.122.07c.097.057.219.03.286-.063l.641-.868c.224-.3.629-.37.931-.159l2.203 1.546c.308.215.4.648.21.981l-.552.97c-.177.317-.464.55-.8.648-.283.08-.574.12-.866.12-1.263 0-3.095-.697-5.553-3.281C.027 7.466-.223 5.25.113 3.963c.095-.354.316-.656.617-.842l.92-.582a.67.67 0 0 1 .934.22l.447.707V.626c0-.345.266-.626.595-.626h9.779c.328 0 .595.28.595.626zM4.254 9.523C3.197 8.41 2.907 7.849 2.674 7.399l-.066-.125a.749.749 0 0 1 .182-.927l.824-.676a.247.247 0 0 0 .05-.32l-1.47-2.318a.219.219 0 0 0-.303-.072l-.92.581a.929.929 0 0 0-.407.551c-.302 1.16-.047 3.193 2.884 6.278 2.93 3.085 4.861 3.356 5.964 3.036a.895.895 0 0 0 .523-.427l.553-.97a.245.245 0 0 0-.069-.32l-2.203-1.545a.22.22 0 0 0-.303.052l-.641.868a.665.665 0 0 1-.882.19l-.118-.068c-.428-.245-.96-.551-2.018-1.664zm9.28-1.297v-7.6a.137.137 0 0 0-.038-.095.124.124 0 0 0-.091-.04h-9.78a.124.124 0 0 0-.09.04.137.137 0 0 0-.038.095v3.577l.555.877c.2.318.134.744-.151.98l-.825.675a.242.242 0 0 0-.06.3l.067.129c.215.43.476.83.779 1.195h9.543a.13.13 0 0 0 .128-.133zm-.606-7.041a.256.256 0 0 1-.045.344l-3.9 3.114a.754.754 0 0 1-.934 0l-3.9-3.114a.255.255 0 0 1-.045-.344.226.226 0 0 1 .327-.047l3.9 3.114c.11.084.259.084.37 0l3.9-3.114a.226.226 0 0 1 .327.047zM6.844 4.66c.09.089.1.236.021.337l-2.39 2.696a.225.225 0 0 1-.33.012.255.255 0 0 1-.012-.347l2.39-2.695c.09-.09.23-.092.321-.003zm6.069 2.698c.088.1.082.255-.012.347a.225.225 0 0 1-.33-.012L10.181 5a.255.255 0 0 1 .012-.347.225.225 0 0 1 .33.012z"/></g></g></svg>