<svg xmlns="http://www.w3.org/2000/svg" width="15" height="16" viewBox="0 0 15 16"><g><g><path fill="#c1c1c1" d="M11.86 14.116l-.602 1.051a1.484 1.484 0 0 1-.871.704c-.308.087-.625.13-.943.129-1.376 0-3.374-.755-6.049-3.557C.03 8.916-.242 6.513.123 5.119c.102-.384.343-.711.671-.913l1.002-.631a.733.733 0 0 1 1.017.24l1.6 2.513a.819.819 0 0 1-.165 1.063l-.898.731a.263.263 0 0 0-.066.326l.074.14c.238.458.535 1.03 1.635 2.181 1.1 1.152 1.644 1.463 2.081 1.713l.134.077a.236.236 0 0 0 .31-.07l.7-.94a.735.735 0 0 1 1.014-.173l2.4 1.676a.812.812 0 0 1 .228 1.064zm-.51-.62l-2.4-1.677a.24.24 0 0 0-.33.057l-.7.94a.726.726 0 0 1-.96.208l-.13-.075c-.465-.266-1.045-.597-2.197-1.804C3.482 9.94 3.165 9.331 2.911 8.843l-.07-.136a.808.808 0 0 1 .197-1.005l.898-.732a.267.267 0 0 0 .054-.346L2.39 4.11a.24.24 0 0 0-.33-.078l-1.005.63a1.006 1.006 0 0 0-.442.598c-.33 1.258-.052 3.462 3.142 6.806s5.297 3.637 6.497 3.29a.974.974 0 0 0 .57-.463l.602-1.05a.265.265 0 0 0-.075-.347zM7.881 3.729a.26.26 0 0 1-.255.266h-.762a.26.26 0 0 1-.254-.266.26.26 0 0 1 .254-.266h.762c.14 0 .255.119.255.266zm0 1.065a.26.26 0 0 1-.255.267h-.762a.26.26 0 0 1-.254-.267.26.26 0 0 1 .254-.266h.762c.14 0 .255.12.255.266zM15 4.262c0 .926-.65 1.711-1.525 1.843v1.871c.001.198-.1.38-.262.479a.475.475 0 0 1-.503-.007L9.588 6.392h-.435v2.93a.521.521 0 0 1-.509.533h-.829a.51.51 0 0 1-.486-.376l-.57-1.943a.276.276 0 0 1 .053-.264.247.247 0 0 1 .247-.08.26.26 0 0 1 .186.187l.57 1.943h.83v-2.93H6.355c-.561 0-1.017-.477-1.017-1.065v-2.13c0-.59.456-1.066 1.017-1.066h3.232L12.705.078c.155-.1.35-.104.508-.01.163.099.263.281.262.479v1.871C14.35 2.55 15 3.336 15 4.262zm-2.024 3.732l-.003-2.1a.257.257 0 0 1-.006-.034.28.28 0 0 1 .006-.033l-.004-3.15-.002-.013.002-.013-.002-2.104-3.169 2.076c-.006.004-.012.004-.018.007a.232.232 0 0 1-.048.019.24.24 0 0 1-.05.01.153.153 0 0 1-.02.005H6.355a.521.521 0 0 0-.508.532v2.131a.52.52 0 0 0 .508.533h3.051V3.463a.26.26 0 0 1 .254-.267c.14 0 .255.12.255.267v2.516zm1.517-3.732c0-.634-.425-1.18-1.018-1.305v2.61c.593-.126 1.018-.672 1.018-1.305z"/></g></g></svg>