<svg xmlns="http://www.w3.org/2000/svg" width="37" height="37" viewBox="0 0 37 37"><defs><mask id="2erqb" width="2" height="2" x="-1" y="-1"><path fill="#fff" d="M5 5h27v27H5z"/><path d="M23.36 17.951l-7.07-4.123c-.643-.376-1.163-.075-1.16.67l.037 8.183c.003.745.53 1.048 1.175.675l7.016-4.05c.644-.372.646-.979.003-1.355zm.54 9.901c-5.165 2.983-11.77 1.213-14.753-3.953C6.164 18.734 7.935 12.13 13.1 9.147c5.165-2.983 11.77-1.213 14.753 3.953 2.982 5.165 1.212 11.77-3.953 14.752zm6.29-16.102c-3.726-6.458-11.984-8.67-18.44-4.94-6.457 3.726-8.67 11.982-4.94 18.44 3.726 6.456 11.983 8.669 18.44 4.94 6.456-3.728 8.67-11.984 4.94-18.44z"/></mask><filter id="2erqa" width="59" height="59" x="-11" y="-11" filterUnits="userSpaceOnUse"><feOffset in="SourceGraphic" result="FeOffset1023Out"/><feGaussianBlur in="FeOffset1023Out" result="FeGaussianBlur1024Out" stdDeviation="2.4 2.4"/></filter></defs><g><g><g filter="url(#2erqa)"><path fill="none" d="M23.36 17.951l-7.07-4.123c-.643-.376-1.163-.075-1.16.67l.037 8.183c.003.745.53 1.048 1.175.675l7.016-4.05c.644-.372.646-.979.003-1.355zm.54 9.901c-5.165 2.983-11.77 1.213-14.753-3.953C6.164 18.734 7.935 12.13 13.1 9.147c5.165-2.983 11.77-1.213 14.753 3.953 2.982 5.165 1.212 11.77-3.953 14.752zm6.29-16.102c-3.726-6.458-11.984-8.67-18.44-4.94-6.457 3.726-8.67 11.982-4.94 18.44 3.726 6.456 11.983 8.669 18.44 4.94 6.456-3.728 8.67-11.984 4.94-18.44z" mask="url(&quot;#2erqb&quot;)"/><path fill-opacity=".5" d="M23.36 17.951l-7.07-4.123c-.643-.376-1.163-.075-1.16.67l.037 8.183c.003.745.53 1.048 1.175.675l7.016-4.05c.644-.372.646-.979.003-1.355zm.54 9.901c-5.165 2.983-11.77 1.213-14.753-3.953C6.164 18.734 7.935 12.13 13.1 9.147c5.165-2.983 11.77-1.213 14.753 3.953 2.982 5.165 1.212 11.77-3.953 14.752zm6.29-16.102c-3.726-6.458-11.984-8.67-18.44-4.94-6.457 3.726-8.67 11.982-4.94 18.44 3.726 6.456 11.983 8.669 18.44 4.94 6.456-3.728 8.67-11.984 4.94-18.44z"/></g><path fill="#fff" d="M23.36 17.951l-7.07-4.123c-.643-.376-1.163-.075-1.16.67l.037 8.183c.003.745.53 1.048 1.175.675l7.016-4.05c.644-.372.646-.979.003-1.355zm.54 9.901c-5.165 2.983-11.77 1.213-14.753-3.953C6.164 18.734 7.935 12.13 13.1 9.147c5.165-2.983 11.77-1.213 14.753 3.953 2.982 5.165 1.212 11.77-3.953 14.752zm6.29-16.102c-3.726-6.458-11.984-8.67-18.44-4.94-6.457 3.726-8.67 11.982-4.94 18.44 3.726 6.456 11.983 8.669 18.44 4.94 6.456-3.728 8.67-11.984 4.94-18.44z"/></g></g></svg>