<svg xmlns="http://www.w3.org/2000/svg" width="25" height="20" viewBox="0 0 25 20"><g><g><path fill="#777" d="M6.247 20.003h-6.25V18.44c1.19 0 2.19-1.024 3-3.07L8.818.572h1.642l5.913 14.784c.586 1.464 1.116 2.344 1.59 2.64.475.296.93.444 1.368.444v1.563H9.943V18.44c.846 0 1.371-.082 1.576-.247a.77.77 0 0 0 .307-.627c0-.224-.086-.519-.258-.884l-.173-.44-.534-1.393H5.036l-.365.943c-.26.666-.39 1.136-.39 1.408 0 .46.153.782.46.965.306.183.809.275 1.506.275zm-.614-6.773h4.59L7.872 7.528zM23.273 3.8v12.395h1.729l-2.177 3.807-2.178-3.807H22.4V3.801h-1.753l2.178-3.806 2.177 3.806z"/></g></g></svg>