<svg xmlns="http://www.w3.org/2000/svg" width="23" height="16" viewBox="0 0 23 16"><g><g><path fill="#c1c3c5" d="M2.226 3.427C1.002 3.427 0 2.657 0 1.713 0 .77 1.002 0 2.226 0h18.548C21.999-.001 23 .77 23 1.713c0 .944-1.001 1.714-2.226 1.714zm0 6.287C1.002 9.713 0 8.941 0 7.998c0-.942 1.002-1.714 2.226-1.714h18.548C21.999 6.285 23 7.057 23 8c0 .943-1.001 1.715-2.226 1.715zm0 6.285C1.002 16 0 15.228 0 14.285s1.002-1.714 2.226-1.714h18.548c1.225 0 2.226.771 2.226 1.714S22 15.999 20.774 15.999z"/></g></g></svg>