<svg xmlns="http://www.w3.org/2000/svg" width="22" height="20" viewBox="0 0 22 20"><g><g><path fill="#333" d="M7.604 10a.325.325 0 0 0 .388-.004l.8-.6c.168-.128.216-.389.108-.584-.109-.195-.334-.251-.502-.125l-.607.456-2.907-2.1 2.33-1.704 2.865 2.086-.333.25c-.169.127-.217.388-.108.584.108.195.333.25.5.125l.814-.61a.443.443 0 0 0 .165-.357.438.438 0 0 0-.17-.354l-3.54-2.578a.317.317 0 0 0-.386 0L4.007 6.69a.443.443 0 0 0-.17.357c0 .145.066.28.172.357L7.604 10zm9.303.225a.33.33 0 0 0 .193.064c.12 0 .238-.07.307-.196.107-.197.056-.457-.113-.582l-8.38-6.129c-.17-.124-.393-.064-.5.133-.107.196-.055.456.114.58l8.379 6.13zm-1.45 1.118a.33.33 0 0 0 .193.065c.121 0 .239-.07.308-.198.106-.198.055-.458-.115-.58l-3.54-2.58c-.17-.123-.393-.063-.5.134-.106.197-.055.457.115.58l3.54 2.579zM14.01 12.46a.32.32 0 0 0 .191.064c.121 0 .24-.07.308-.198.107-.198.055-.458-.115-.58l-3.568-2.588c-.169-.123-.393-.063-.499.135-.106.197-.054.457.116.58l3.567 2.587zm-1.45 1.118c.06.043.127.064.192.064.121 0 .239-.07.308-.199.106-.198.053-.457-.117-.58L9.35 10.268c-.17-.122-.395-.063-.5.135-.106.197-.054.457.116.58l3.595 2.596zm-.983 1.462c.06.043.126.064.19.064.122 0 .24-.07.31-.199.105-.198.053-.458-.117-.58L3.087 7.916c-.17-.122-.393-.062-.5.136-.104.197-.052.457.118.58l8.871 6.408zm2.008 4.792c.174.11.365.165.566.165.302 0 .628-.121.959-.363l5.904-4.319c.553-.405.987-1.317.987-2.078 0-.452-.156-.812-.428-.986-.271-.175-.616-.136-.946.104l-6.09 4.455c-.169.124-.22.385-.113.58.106.198.33.257.5.133l6.09-4.454c.128-.095.199-.087.208-.081.011.007.054.072.054.25 0 .474-.304 1.112-.65 1.365l-5.903 4.318c-.314.23-.6.293-.787.173-.186-.12-.293-.435-.293-.866 0-1.092.671-2.506 1.467-3.087l6.722-4.917A.442.442 0 0 0 22 9.87a.442.442 0 0 0-.17-.358L8.916.064a.321.321 0 0 0-.387 0L1.724 5.04C.757 5.748 0 7.341 0 8.67v.224c0 1.328.757 2.92 1.724 3.629l10.12 7.401c.17.125.393.065.5-.132.107-.196.056-.456-.114-.58L2.11 11.808C1.36 11.26.727 9.924.727 8.893v-.224c0-1.031.633-2.366 1.385-2.916L8.72.918l12.236 8.95-6.235 4.56c-1.013.74-1.806 2.411-1.806 3.8 0 .76.238 1.328.668 1.605z"/></g></g></svg>