<svg xmlns="http://www.w3.org/2000/svg" width="18" height="18" viewBox="0 0 18 18"><g><g><path fill="#fff" d="M7.432 11.164l4.788-2.18-.526-1.394-3.519 1.602-.597-1.585-1.27.578zm3.115 2.827l1.69.77-2.391 1.088zM5.925 1.736l10.479 4.767-2.742 7.272-3.224-1.467c-.35-.16-.753.023-.898.408l-1.336 3.542-6.62-3.012zm2.388 16.205a.632.632 0 0 0 .526 0l5.457-2.482a.727.727 0 0 0 .373-.41l3.268-8.664a.832.832 0 0 0 0-.58.73.73 0 0 0-.372-.408L5.816.053c-.35-.16-.752.024-.898.409L.053 13.366a.82.82 0 0 0 0 .578c.069.184.203.33.371.408l7.889 3.589z"/></g></g></svg>