<svg xmlns="http://www.w3.org/2000/svg" width="18" height="18" viewBox="0 0 18 18"><g><g><path fill="#777" d="M4.5 12.053zm0 0c.854.56 1.85.884 2.904.884 2.995 0 5.322-2.615 5.197-5.84l-.001-.01V7.06v-.03c.272-.2.638-.556.9-1.023a3.09 3.09 0 0 1-1.03.315c.271-.158.674-.676.773-1.086-.261.18-.862.441-1.158.441v.002a1.79 1.79 0 0 0-1.342-.618c-1.025 0-1.856.895-1.856 2 0 .152.016.3.047.445C7.542 7.468 5.916 6.717 5 5.432c-.562 1.05-.075 2.217.564 2.643-.219.017-.622-.027-.811-.226-.014.696.298 1.619 1.432 1.953-.219.128-.605.09-.773.063.06.59.824 1.358 1.66 1.358-.299.37-1.315 1.044-2.572.83zM9 1.406a7.594 7.594 0 1 1 0 15.187A7.594 7.594 0 0 1 9 1.406zM9 18a9 9 0 0 0 9-9 9 9 0 0 0-9-9 9 9 0 0 0-9 9 9 9 0 0 0 9 9z"/></g></g></svg>