<svg xmlns="http://www.w3.org/2000/svg" width="15" height="16" viewBox="0 0 15 16"><g><g><path fill="#a9a9a9" d="M7.5 7.999c-1.745 0-3.164-1.514-3.164-3.375S5.756 1.25 7.5 1.25c1.745 0 3.164 1.514 3.164 3.375S9.244 8 7.5 8zm5.303 2.344a7.42 7.42 0 0 0-2.85-1.907c1.136-.835 1.883-2.232 1.883-3.812C11.836 2.074 9.89 0 7.5 0c-2.39 0-4.336 2.075-4.336 4.625 0 1.58.746 2.977 1.883 3.812a7.418 7.418 0 0 0-2.85 1.907C.78 11.853 0 13.863 0 16h1.172c0-3.723 2.838-6.75 6.328-6.75s6.328 3.027 6.328 6.75H15c0-2.138-.78-4.147-2.197-5.657z"/></g></g></svg>