<svg xmlns="http://www.w3.org/2000/svg" width="18" height="18" viewBox="0 0 18 18"><g><g><path fill="#777" d="M7.367 7.772V6.738L8.141 4.5h-.588l-.356 1.389h-.036l-.374-1.389h-.583l.74 2.302v.97zm1.274-1.93a.22.22 0 0 1 .153-.051c.067 0 .096.017.138.052.042.034.063.079.063.136v1.14c0 .07-.02.123-.061.164-.043.038-.071.057-.14.057-.069 0-.121-.02-.157-.057-.037-.038-.055-.093-.055-.163V5.979c0-.057.02-.103.059-.136zm-.257 1.751c.135.127.2.191.423.191.232 0 .262-.062.397-.186.131-.123.197-.296.197-.516v-1.07c0-.195-.064-.388-.176-.5-.13-.13-.195-.205-.407-.205-.233 0-.298.088-.437.205-.138.118-.2.288-.2.485V7.07c0 .219.069.392.203.522zm1.516.169c.024.024.071.04.13.04a.442.442 0 0 0 .264-.096c.123-.095.225-.226.333-.421v.435h.41V5.31h-.41v1.638c-.049.057-.263.346-.3.346-.048 0-.057-.013-.08-.04-.02-.027-.032-.07-.032-.131V5.309h-.41V7.3c0 .154.013.379.095.463zm1.53 3.357v-.076c0-.092-.016-.346-.043-.383-.028-.04-.076-.059-.14-.059-.065 0-.113.02-.142.059-.029.037-.044.291-.044.383v.076zm-1.898 1.184a.214.214 0 0 0 .102.025c.052 0 .091-.016.115-.048.025-.031.075-.082.075-.154v-1.362c0-.076-.053-.132-.082-.173a.166.166 0 0 0-.134-.056.199.199 0 0 0-.092.021c-.028.014-.083.037-.113.068v1.6a.461.461 0 0 0 .129.079zM6.139 9.404h1.23v.409h-.415v2.862h-.412V9.813H6.14zm4.67.998a.613.613 0 0 1 .456-.176c.192 0 .338.053.438.16.105.112.156.456.156.659v.408h-.798v.545c0 .113.015.192.042.236.028.043.073.065.142.065.068 0 .115-.018.142-.055.027-.037.043-.117.043-.246V11.9h.428v.111c0 .222-.05.386-.156.498-.105.11-.26.167-.467.167a.562.562 0 0 1-.442-.179c-.107-.115-.16-.279-.16-.486v-.966c0-.186.059-.528.177-.643zM9.612 12.63a.55.55 0 0 1-.183-.151v.171h-.433V9.404h.408v.981a.824.824 0 0 1 .208-.156.412.412 0 0 1 .2-.054c.134 0 .239.05.31.145.07.096.106.236.106.42v1.447c0 .16-.033.28-.1.366a.354.354 0 0 1-.29.128.48.48 0 0 1-.226-.051zM7.353 10.23h.415v1.903c0 .052.009.09.027.114.018.023.047.035.087.035.03 0 .097-.015.145-.048.048-.03.119-.07.158-.117v-1.887h.404v2.446H8.16v-.295c-.08.087-.161.184-.248.23a.485.485 0 0 1-.248.072c-.099 0-.174-.033-.224-.1a.485.485 0 0 1-.087-.298zm4.503 3.268c.91 0 1.644-.753 1.644-1.68v-1.557c0-.929-.735-1.681-1.644-1.681H6.144c-.908 0-1.644.752-1.644 1.68v1.558c0 .927.736 1.68 1.644 1.68zM9 1.406a7.594 7.594 0 1 1 0 15.187A7.594 7.594 0 0 1 9 1.406zM9 18a9 9 0 0 0 9-9 9 9 0 0 0-9-9 9 9 0 0 0-9 9 9 9 0 0 0 9 9z"/></g></g></svg>